<?xml version="1.0" encoding="UTF-8" standalone="no"?>
<!-- Created with Inkscape (http://www.inkscape.org/) -->
<svg
   xmlns:dc="http://purl.org/dc/elements/1.1/"
   xmlns:cc="http://web.resource.org/cc/"
   xmlns:rdf="http://www.w3.org/1999/02/22-rdf-syntax-ns#"
   xmlns:svg="http://www.w3.org/2000/svg"
   xmlns="http://www.w3.org/2000/svg"
   xmlns:sodipodi="http://sodipodi.sourceforge.net/DTD/sodipodi-0.dtd"
   xmlns:inkscape="http://www.inkscape.org/namespaces/inkscape"
   width="601"
   height="601"
   id="svg2"
   sodipodi:version="0.32"
   inkscape:version="0.44"
   version="1.0"
   sodipodi:docbase="C:\Documents and Settings\ltljltlj\Desktop\Signs\Regulatory Signs"
   sodipodi:docname="No Right Turn sign (Outline).svg">
  <defs
     id="defs4" />
  <sodipodi:namedview
     id="base"
     pagecolor="#ffffff"
     bordercolor="#666666"
     borderopacity="1.0"
     gridtolerance="10000"
     guidetolerance="10"
     objecttolerance="10"
     inkscape:pageopacity="0.0"
     inkscape:pageshadow="2"
     inkscape:zoom="1.2866667"
     inkscape:cx="300"
     inkscape:cy="300"
     inkscape:document-units="px"
     inkscape:current-layer="layer1"
     width="601px"
     height="601px"
     inkscape:window-width="1280"
     inkscape:window-height="968"
     inkscape:window-x="-4"
     inkscape:window-y="-4" />
  <metadata
     id="metadata7">
    <rdf:RDF>
      <cc:Work
         rdf:about="">
        <dc:format>image/svg+xml</dc:format>
        <dc:type
           rdf:resource="http://purl.org/dc/dcmitype/StillImage" />
      </cc:Work>
    </rdf:RDF>
  </metadata>
  <g
     inkscape:label="Layer 1"
     inkscape:groupmode="layer"
     id="layer1">
    <path
       style="color:black;fill:white;fill-opacity:1;fill-rule:nonzero;stroke:black;stroke-width:1;stroke-linecap:butt;stroke-linejoin:miter;marker:none;marker-start:none;marker-mid:none;marker-end:none;stroke-miterlimit:4;stroke-dasharray:none;stroke-dashoffset:0;stroke-opacity:1;visibility:visible;display:inline;overflow:visible"
       d="M 38,0.5 L 563,0.5 C 583.775,0.5 600.5,17.225 600.5,38 L 600.5,563 C 600.5,583.775 583.775,600.5 563,600.5 L 38,600.5 C 17.225,600.5 0.5,583.775 0.5,563 L 0.5,38 C 0.5,17.225 17.225,0.5 38,0.5 z "
       id="rect1872" />
    <path
       style="color:black;fill:black;fill-opacity:1;fill-rule:nonzero;stroke:none;stroke-width:0.8735441;stroke-linecap:butt;stroke-linejoin:miter;marker:none;marker-start:none;marker-mid:none;marker-end:none;stroke-miterlimit:4;stroke-dashoffset:0;stroke-opacity:1;visibility:visible;display:inline;overflow:visible"
       d="M 38,9.875 L 563,9.875 C 578.58125,9.875 591.125,22.41875 591.125,38 L 591.125,563 C 591.125,578.58125 578.58125,591.125 563,591.125 L 38,591.125 C 22.41875,591.125 9.875,578.58125 9.875,563 L 9.875,38 C 9.875,22.41875 22.41875,9.875 38,9.875 z "
       id="rect2760" />
    <path
       style="color:black;fill:white;fill-opacity:1;fill-rule:nonzero;stroke:none;stroke-width:0.8735441;stroke-linecap:butt;stroke-linejoin:miter;marker:none;marker-start:none;marker-mid:none;marker-end:none;stroke-miterlimit:4;stroke-dashoffset:0;stroke-opacity:1;visibility:visible;display:inline;overflow:visible"
       d="M 38,25.5 L 563,25.5 C 569.925,25.5 575.5,31.075 575.5,38 L 575.5,563 C 575.5,569.925 569.925,575.5 563,575.5 L 38,575.5 C 31.075,575.5 25.5,569.925 25.5,563 L 25.5,38 C 25.5,31.075 31.075,25.5 38,25.5 z "
       id="rect2762" />
    <path
       style="color:black;fill:#af1e2d;fill-opacity:1;fill-rule:nonzero;stroke:none;stroke-width:0.8735441;stroke-linecap:butt;stroke-linejoin:miter;marker:none;marker-start:none;marker-mid:none;marker-end:none;stroke-miterlimit:4;stroke-dashoffset:0;stroke-opacity:1;visibility:visible;display:inline;overflow:visible"
       d="M 300.5,38 C 445.925,38 563,155.075 563,300.5 C 563,445.925 445.925,563 300.5,563 C 155.075,563 38,445.925 38,300.5 C 38,155.075 155.075,38 300.5,38 z "
       id="rect3651" />
    <rect
       style="opacity:1;color:black;fill:black;fill-opacity:1;fill-rule:nonzero;stroke:none;stroke-width:0.8735441;stroke-linecap:butt;stroke-linejoin:miter;marker:none;marker-start:none;marker-mid:none;marker-end:none;stroke-miterlimit:4;stroke-dasharray:none;stroke-dashoffset:0;stroke-opacity:1;visibility:visible;display:inline;overflow:visible"
       id="rect3653"
       width="0"
       height="27.202072"
       x="578.73834"
       y="298.1684"
       rx="249.48199"
       ry="27.202072" />
    <rect
       style="opacity:1;color:black;fill:white;fill-opacity:1;fill-rule:nonzero;stroke:none;stroke-width:0.8735441;stroke-linecap:butt;stroke-linejoin:miter;marker:none;marker-start:none;marker-mid:none;marker-end:none;stroke-miterlimit:4;stroke-dasharray:none;stroke-dashoffset:0;stroke-opacity:1;visibility:visible;display:inline;overflow:visible"
       id="rect4540"
       width="425"
       height="425"
       x="88"
       y="88"
       rx="212.5"
       ry="212.5" />
    <path
       style="fill:black"
       d="M 200.52699,342.5591 C 200.55177,231.9516 200.56617,222.0292 200.70344,221.029 C 201.26697,216.923 202.11922,213.9458 203.67207,210.6588 C 208.01138,201.4735 216.50476,194.8788 226.23898,193.1367 C 228.72086,192.6925 225.201,192.7142 294.79841,192.7132 C 347.07032,192.7124 360.17794,192.6885 360.14351,192.5939 C 360.11982,192.5288 359.71766,191.1117 359.24983,189.4449 C 358.78199,187.7781 356.33868,179.161 353.82027,170.2958 C 350.96463,160.2435 349.18231,153.8135 349.08451,153.211 C 348.89531,152.0452 348.9465,149.6129 349.18399,148.4851 C 350.17503,143.7785 353.43389,139.9777 357.65686,138.6033 C 361.00725,137.5128 364.67256,137.9139 367.66946,139.699 C 368.13054,139.9737 394.82295,158.8434 426.98591,181.6318 C 459.1489,204.4201 486.0306,223.4604 486.7231,223.9434 C 487.4156,224.4264 487.9902,224.8525 488,224.8904 C 488.0098,224.9283 461.0521,244.0731 428.09393,267.4344 C 386.11348,297.1909 367.89109,310.0561 367.23852,310.3991 C 365.36325,311.3845 363.68863,311.7952 361.54571,311.7952 C 358.07464,311.7952 355.09124,310.5174 352.62414,307.9741 C 350.72833,306.0198 349.52576,303.669 349.08433,301.0546 C 348.86475,299.7542 348.94495,297.4871 349.25855,296.13 C 349.46784,295.2243 357.70143,265.8265 358.64821,262.6045 C 358.87014,261.8492 359.30506,260.3363 359.6147,259.2424 C 359.92434,258.1486 360.1948,257.1999 360.21573,257.1343 C 360.24632,257.0383 351.79487,257.0202 317.16865,257.042 C 276.10988,257.0678 274.0511,257.077 273.39412,257.2389 C 270.71213,257.8995 268.79125,258.9557 266.95213,260.7808 C 264.94605,262.7717 263.68977,265.1638 263.23992,267.8493 C 263.11398,268.6012 263.09904,278.9927 263.09904,365.8452 L 263.09904,463 L 231.79952,463 L 200.5,463 L 200.52699,342.5591 z "
       id="path4606" />
    <path
       style="color:black;fill:#af1e2d;fill-opacity:1;fill-rule:nonzero;stroke:none;stroke-width:0.8735441;stroke-linecap:butt;stroke-linejoin:miter;marker:none;marker-start:none;marker-mid:none;marker-end:none;stroke-miterlimit:4;stroke-dashoffset:0;stroke-opacity:1;visibility:visible;display:inline;overflow:visible"
       d="M 123.72354,159.0785 L 159.0789,123.72314 L 477.27705,441.92129 L 441.92169,477.27665 L 123.72354,159.0785 z "
       id="rect4608" />
  </g>
</svg>
